<svg xmlns="http://www.w3.org/2000/svg" viewBox="0 0 100 100" enable-background="new 0 0 100 100"><style type="text/css">.st0{fill:#BC9D6D;}</style><path class="st0" d="M19.5 95.4c1.1.1 2.1-.7 2.3-1.7-.1 1.2.8 2.2 2 2.3 1.2.1 2.2-.8 2.3-2 .1-1.3.4-4.5.6-5.7h.1c7.7.6 16.4-5.1 18.1-17.3.7-5.3-.6-10.5-3.8-14.8-2.2-2.9-5-5.1-8.3-6.4.2-.5.4-1 .5-1.5.2-1.4-.2-2.8-1-3.9s-2.1-1.8-3.5-2c-2.6-.4-5.1 1.3-5.8 3.8l-.2.7c-.1.5 0 1.1 0 1.6l-1.7.3-1.2-3.8c1.4-1 2.4-2.4 2.9-4.1.2-.8.3-1.7.3-2.6l-.6-9.5c-.1-.9-.3-1.7-.6-2.5l5.1-4.2c.1.1.2.1.4.2 1.8.9 3.9 1 5.8.4l9.1-3.1c2.3-.8 4.2-2.7 4.8-5.1l4.5-.1c.7 1.8 2.2 3.4 4.1 4.2l8.8 3.6c1.8.8 3.9.8 5.7 0l2 2.5c-.4.6-.7 1.3-1 2.1-.3 1-.4 2-.2 3.1l1.3 9.5c.4 2.8 2.3 5.1 4.8 6l-.1 3.1c-6.6.2-13 3.7-16.6 9.9-1.1 2-2 3.9-2.5 5.8-2.4 8.3.8 15.5 6 19 0 0 .1 0 .1.1-.6 1-2.4 3.8-3 4.9-.6 1-.3 2.3.7 3 1 .6 2.3.3 3-.7l-.2.4c-.3.9.1 1.9.9 2.4 1 .6 2.3.3 3-.7.3-.4 2.4-3.8 3.1-5h.1c6.9 3.5 17.1 1.4 23.3-9.2 4.6-8 3.1-17.9-3.3-24.2.4-.4.8-.8 1-1.2.2-.4.4-.8.5-1.2.7-2.3-.3-4.8-2.4-6-2.5-1.5-5.7-.6-7.2 1.9-.2.4-.4.8-.5 1.2 0 .1 0 .2-.1.3-.5-.2-1.1-.3-1.7-.4l.1-3.2c2.7-.6 4.9-2.6 5.6-5.3.3-1 .4-2 .2-3.1l-1.3-9.5c-.6-4.1-4.4-7-8.5-6.5-.7.1-1.3.3-2 .6l-1.9-2.4c.3-.4.6-.9.8-1.4 1.6-3.9-.3-8.3-4.1-9.9l-8.8-3.6c-1.9-.8-3.9-.8-5.8 0s-3.3 2.2-4.1 4.1l-.3.8c-.1.2-.1.4-.1.6l-4.2.1v-.1c-.6-1.9-2-3.5-3.8-4.3-1.8-.9-3.9-1-5.8-.4l-9.1 3.1c-2.3.8-4.2 2.7-4.8 5.1-.4 1.5-.4 3 .1 4.5.1.4.3.7.4 1l-4.8 4c-1.4-.9-3-1.3-4.6-1.2-3.2.2-5.9 2.4-6.8 5.5-.2.8-.3 1.7-.3 2.6l.7 9.5c.3 4.1 3.7 7.2 7.8 7l1.3 3.7c-5.3 2.3-9.4 6.9-11.1 12.7l-.6 2.7c-1.7 12.2 5.1 20.1 12.6 21.6h.1c-.2 1.4-.5 5.4-.6 5.9 0 1.2.9 2.3 2 2.4zm71.5-19.1c-3.7 6.3-10.9 10.9-17.6 7.5-2.1-1-4.5-.5-5.6 1.3 1-1.8.3-4.2-1.6-5.5-6.3-4.1-5.9-12.7-2.2-19 4.3-7.4 13.9-10 21.3-5.7 7.5 4.4 10.1 13.9 5.7 21.4zm-3.8-26.4c.3-.4.8-.6 1.3-.3.4.2.6.7.4 1.1l-.1.2c-.3.4-.8.6-1.3.3-.4-.2-.5-.8-.3-1.3zm-5.6-21.5l1.3 9.5c.1.4 0 .9-.1 1.3-.2.7-.7 1.4-1.3 1.8l.1-3.1c0-1.2-.9-2.2-2.1-2.2-1 0-1.9.6-2.2 1.6l-.1.5-.1 2.6c-.4-.4-.6-1-.7-1.6l-1.3-9.5v-.7l1.5 1.9c.7.9 2.1 1.1 3 .4.9-.7 1.1-2.1.4-3l-1.7-2.2c1.7-.1 3.1 1.1 3.3 2.7zm-24.4-19.8c.8-.3 1.7-.3 2.5 0l8.8 3.6c1.4.6 2.2 2 2 3.5l-1-1.3c-.7-.9-2.1-1.1-3-.4-.4.3-.6.7-.7 1.1-.2.6-.1 1.4.4 1.9l1.1 1.4c-.4 0-.7-.1-1.1-.2l-8.8-3.6c-.2-.1-.4-.2-.5-.3h1.6c1.2 0 2.1-1 2.1-2.2 0-1.2-1-2.1-2.2-2.1h-2.7c.3-.7.8-1.1 1.5-1.4zm-27.6 3.8l9.1-3.1c.8-.3 1.7-.2 2.5.2.4.2.7.4.9.7h-1.7c-1 0-1.8.7-2 1.6-.1.2-.1.4-.1.6 0 1.2 1 2.1 2.2 2.1h1.7c-.4.4-.8.7-1.4.9l-9.1 3.1c-.2.1-.4.1-.6.1l1.6-1.3c.9-.8 1.1-2.1.3-3-.8-.9-2.1-1.1-3-.3l-2.4 2c-.4-1.5.5-3.1 2-3.6zm-17.3 26.7l-.6-9.5c-.1-1.8 1.3-3.3 3-3.4h.5l-1.5 1.2c-.4.3-.6.7-.7 1.1-.2.7-.1 1.4.4 2 .8.9 2.1 1.1 3 .3l1.6-1.3.6 9.3c0 .4 0 .7-.1 1.1-.1.3-.2.6-.4.9l-.8-2.1c-.4-1.1-1.7-1.7-2.8-1.3-.7.2-1.2.8-1.3 1.4-.1.4-.1.9 0 1.3l.6 1.7c-.7-.6-1.4-1.5-1.5-2.7zm15 9.1c-.1-.1-.2-.4-.2-.7.1-.5.6-.9 1.1-.8.3 0 .5.2.6.4.1.1.2.4.2.7v.1c-.1.4-.6.7-1 .7-.4-.1-.6-.3-.7-.4zm-17.6 17.9c1.2-8.5 9.1-14.5 17.6-13.3 4.1.6 7.8 2.7 10.3 6.1 2.5 3.3 3.6 7.4 3 11.6-1.3 9.5-7.8 14-13.5 13.6-2.3-.2-4.3 1.3-4.7 3.3.2-2.1-1.3-4-3.6-4.5-7.3-1.5-10.1-9.6-9.1-16.8z" id="Your_Icon_2_"/></svg>