<svg xmlns="http://www.w3.org/2000/svg" viewBox="0 0 100 59.4" enable-background="new 0 0 100 59.4"><style type="text/css">.st0{fill:#BC9D6D;}</style><path class="st0" d="M74.9 32.5c4.6-1.4 9.5-3.3 14.1-5.8 7.4-4.3 11.2.2 8.5 6.9-2.3 6.4-14.8 18.3-25.7 21-4.2-2.9-12.3-4.9-21.8-5-9.4 0-17.6 2-21.8 5-10.8-2.6-23.3-14.5-25.6-20.9-2.7-6.8 1-11.2 8.4-6.9 4.6 2.5 9.4 4.4 14.1 5.8 10 3 19.1 3.7 23.9 3.7h2.6c4.7-.1 13.6-.9 23.3-3.8z"/><path class="st0" d="M61.5 2.4c3.9 2 10.2 20.2 12.6 27.6-9.4 2.7-17.9 3.5-22.5 3.5h-2.6c-4.7 0-13.4-.7-23-3.5 2.4-7.5 8.8-25.7 12.6-27.6 4.4-2.2 8.3 1.5 11.3 1.8h-1.2.7.7c3.1-.3 6.9-4 11.4-1.8zm-1.5 14.2c0-.8-.7-1.5-1.5-1.5-.7 0-1.4.6-1.5 1.3l-4.5-.7-2-4c.5-.2.9-.7.9-1.4 0-.8-.7-1.5-1.5-1.5s-1.5.7-1.5 1.5c0 .6.4 1.1.9 1.4l-2 4-4.5.7c-.1-.7-.7-1.3-1.5-1.3s-1.5.7-1.5 1.5.7 1.5 1.5 1.5c.5 0 .9-.2 1.2-.6l3.2 3.1-.8 4.7c-.2-.1-.4-.1-.6-.1-.8 0-1.5.7-1.5 1.5s.7 1.5 1.5 1.5 1.5-.7 1.5-1.5c0-.3-.1-.6-.3-.8l4.3-2.2 4.3 2.2c0 .1-.1.4-.1.7 0 .8.7 1.5 1.5 1.5s1.5-.7 1.5-1.5-.7-1.5-1.5-1.5c-.2 0-.4 0-.6.1l-.8-4.7 3.2-3.1c.3.4.7.6 1.2.6.8 0 1.5-.6 1.5-1.4z" id="XMLID_1_"/></svg>