<svg xmlns="http://www.w3.org/2000/svg" viewBox="0 0 100 100" enable-background="new 0 0 100 100"><style type="text/css">.st0{fill:#87714F;}</style><path class="st0" d="M88.1 68.4c-.7 0-1.3.2-1.8.6l-11.3-19 11.3-19c.5.3 1.1.6 1.8.6 2 0 3.6-1.6 3.6-3.6s-1.6-3.6-3.6-3.6-3.6 1.6-3.6 3.6l-22 .3-10.8-19.2c1.1-.6 1.9-1.7 1.9-3.1 0-2-1.6-3.6-3.6-3.6s-3.6 1.6-3.6 3.6c0 1.3.8 2.5 1.9 3.1l-10.8 19.2-22-.3c0-2-1.6-3.6-3.6-3.6s-3.6 1.6-3.6 3.6 1.6 3.6 3.6 3.6c.7 0 1.3-.2 1.8-.6l11.3 19-11.3 19c-.5-.3-1.1-.6-1.8-.6-2 0-3.6 1.6-3.6 3.6s1.6 3.6 3.6 3.6 3.6-1.6 3.6-3.6l22-.3 10.8 19.2c-1.1.6-1.9 1.7-1.9 3.1 0 2 1.6 3.6 3.6 3.6s3.6-1.6 3.6-3.6c0-1.3-.8-2.5-1.9-3.1l10.8-19.2 22 .3c0 2 1.6 3.6 3.6 3.6s3.6-1.6 3.6-3.6-1.6-3.6-3.6-3.6z" id="Your_Icon"/></svg>